<?xml version="1.0" standalone="no"?>
<!DOCTYPE svg PUBLIC "-//W3C//DTD SVG 20010904//EN"
 "http://www.w3.org/TR/2001/REC-SVG-20010904/DTD/svg10.dtd">
<svg version="1.0" xmlns="http://www.w3.org/2000/svg"
 width="627.000000pt" height="202.000000pt" viewBox="0 0 627.000000 202.000000"
 preserveAspectRatio="xMidYMid meet">
<metadata>
Created by potrace 1.13, written by Peter Selinger 2001-2015
</metadata>
<g transform="translate(0.000000,202.000000) scale(0.100000,-0.100000)"
fill="#000000" stroke="none">
<path d="M3530 1919 c-35 -14 -59 -38 -83 -84 -20 -37 -22 -60 -27 -278 l-5
-237 -55 39 c-173 122 -422 129 -613 18 -66 -39 -161 -147 -198 -224 l-32 -67
-13 52 c-48 187 -198 304 -409 319 -135 9 -257 -28 -357 -110 l-56 -46 -7 27
c-17 68 -100 131 -173 132 -37 0 -97 -23 -125 -48 -41 -37 -51 -73 -57 -207
-4 -88 -9 -124 -15 -110 -51 115 -164 233 -278 289 -112 54 -184 70 -327 70
-199 1 -342 -50 -466 -166 -152 -143 -220 -358 -193 -613 19 -178 68 -285 183
-401 194 -194 529 -242 796 -112 104 50 218 159 265 253 l30 60 5 -125 c6
-139 16 -167 74 -218 23 -20 51 -33 81 -37 95 -15 165 20 205 100 25 50 25 52
30 400 6 378 7 385 65 461 59 77 204 109 276 61 76 -50 88 -131 89 -588 l0
-287 28 -53 c70 -134 256 -134 325 1 25 49 27 63 27 169 l1 116 39 -77 c74
-143 203 -254 339 -290 164 -43 329 -9 466 94 l59 46 12 -35 c35 -102 149
-150 249 -104 85 39 104 87 105 271 l0 135 42 -85 c75 -155 217 -269 393 -316
33 -8 112 -18 176 -21 144 -7 250 12 367 67 100 47 197 138 228 212 10 27 21
48 24 47 3 0 21 -25 40 -56 151 -239 497 -335 822 -227 96 32 179 85 242 155
61 68 87 126 93 209 3 55 0 71 -19 105 -34 58 -80 85 -143 85 -68 0 -108 -27
-162 -109 -91 -139 -148 -176 -268 -176 -109 0 -172 35 -227 125 -86 142 -66
421 40 534 43 46 117 76 188 76 94 0 153 -35 233 -139 74 -96 109 -121 169
-121 121 0 197 97 171 221 -30 145 -187 281 -389 336 -46 13 -101 18 -190 17
-142 0 -240 -22 -345 -77 -79 -42 -191 -155 -234 -236 l-34 -64 -31 63 c-63
130 -192 238 -340 287 -70 23 -99 26 -211 27 -148 1 -214 -13 -334 -70 -104
-49 -205 -151 -260 -266 l-40 -83 -1 375 c-1 261 -5 384 -13 405 -30 77 -86
115 -167 114 -30 0 -66 -5 -80 -10z m988 -778 c66 -34 112 -97 131 -180 l9
-41 -249 0 c-153 0 -249 4 -249 10 0 5 9 35 21 65 25 66 67 118 118 145 50 27
168 27 219 1z m-3737 -3 c50 -14 112 -68 144 -123 51 -85 67 -240 41 -366 -18
-84 -44 -134 -93 -181 -51 -49 -99 -68 -177 -68 -158 0 -256 118 -273 331 -11
144 27 275 100 347 67 66 164 89 258 60z m2459 -18 c51 -26 105 -91 132 -159
19 -48 23 -75 23 -186 0 -155 -15 -210 -78 -281 -53 -60 -104 -84 -182 -84
-78 0 -130 24 -183 85 -59 67 -82 146 -82 280 0 201 73 333 204 366 44 11 122
1 166 -21z m1724 -491 l6 -56 -43 15 c-70 25 -104 12 -209 -79 -125 -108 -180
-134 -283 -134 -62 0 -89 5 -120 22 -78 42 -139 130 -151 217 l-7 45 354 3
c288 3 361 7 394 19 22 9 43 13 46 10 4 -3 9 -31 13 -62z"/>
</g>
</svg>
